<svg xmlns="http://www.w3.org/2000/svg" xmlns:xlink="http://www.w3.org/1999/xlink" width="184.753" height="197.497" viewBox="0 0 184.753 197.497">
  <defs>
    <linearGradient id="linear-gradient" x1="0.5" y1="1" x2="0.5" gradientUnits="objectBoundingBox">
      <stop offset="0" stop-color="gray" stop-opacity="0.251"/>
      <stop offset="0.54" stop-color="gray" stop-opacity="0.122"/>
      <stop offset="1" stop-color="gray" stop-opacity="0.102"/>
    </linearGradient>
    <linearGradient id="linear-gradient-2" x1="0.5" y1="1" x2="0.5" y2="0" xlink:href="#linear-gradient"/>
    <linearGradient id="linear-gradient-3" x1="0.502" y1="1" x2="0.502" y2="0" xlink:href="#linear-gradient"/>
    <linearGradient id="linear-gradient-4" x1="0.5" y1="1" x2="0.5" y2="0" xlink:href="#linear-gradient"/>
    <linearGradient id="linear-gradient-5" x1="0.5" y1="1" x2="0.5" y2="0" xlink:href="#linear-gradient"/>
  </defs>
  <g id="art" transform="translate(0.002 -0.003)">
    <path id="Path_1" data-name="Path 1" d="M128.15,112.974l2.991-1.154.786,1.709.363,4.085-.669.485Z" transform="translate(-93.436 -81.526)"/>
    <path id="Path_2" data-name="Path 2" d="M172.6,145.78l-3.416,1.975,3.589,5.293.837-.61.52-4.2Z" transform="translate(-123.351 -106.286)"/>
    <g id="Group_1" data-name="Group 1" transform="translate(38.588 14.834)" opacity="0.05">
      <path id="Path_3" data-name="Path 3" d="M463.128,140.23a11.449,11.449,0,0,0-1.528,2.958l.542-.374A5.292,5.292,0,0,1,463.128,140.23Z" transform="translate(-445.305 -140.23)"/>
      <path id="Path_4" data-name="Path 4" d="M422.353,171.178l.377-7.918c-8.4,5.329-20.686,10.191-20.686,10.191l-.593.94s12.3-4.863,20.686-10.191l-.352,7.458Z" transform="translate(-401.45 -157.021)"/>
    </g>
    <g id="Group_2" data-name="Group 2" transform="translate(33.934 0.003)" opacity="0.5">
      <path id="Path_5" data-name="Path 5" d="M128.843,119.016l.688-.5-.371-4.207-.81-1.758-3.08,1.189Z" transform="translate(-125.27 -82.061)" fill="url(#linear-gradient)"/>
      <path id="Path_6" data-name="Path 6" d="M443.031,85.991a3.823,3.823,0,0,0-4.253.271,6.158,6.158,0,0,0-1.98,2.552l-.271.718h0l-1.268.921-.412-.88s-4.489-7.975-17.73,7.6l-.06-.049s-1.127,1.379-2.154,2.926l-.146.222-.065.1-.092.144-.068.108-.1.171-.089.146-.095.16-.068.117-.07.122-.068.122-.07.13-.1.2-.057.108-.062.127-.046.1-.06.127-.038.084q-.049.114-.092.222l-.033.084-.043.119-.027.081q-.03.092-.054.182a.51.51,0,0,1-.024.092h0a1.732,1.732,0,0,0-.06.585l-17.63,12.269.9,1.967s12.67-5.006,21.306-10.5l-.363,7.68h0l-.022.474s-7.889,6.531-9.942,9.858L404,127.48l3.7,5.451.861-.626.542-4.334,14.474-11.57s2.744-5.014,2.793-9.211l.593,2.289s1.262,3.546,2.154,3.687.894-2.75.271-3.608-.33-6.6-.33-6.6l.163-1.168,2.265-1.647.084-.079.119.721.455.041v.033h0l.022.209h0l.293,5.469,1.6,6.187s1.262,3.546,2.154,3.687.894-2.75.271-3.608-.328-6.594-.328-6.594l.661-4.776h0v-.092l.013-.106,1.3.114s1.355-4.657-.913-6.686l-.412-.88.845-.612h0l.171-.122a3.833,3.833,0,0,0,5.361,0,2.674,2.674,0,0,0,1.788-.477l.328-.236a4.332,4.332,0,0,0,.945-.813A6.145,6.145,0,0,0,443.031,85.991Z" transform="translate(-392.56 -85.483)" fill="url(#linear-gradient-2)"/>
    </g>
    <path id="Path_7" data-name="Path 7" d="M419.005,129.75s-3.855,4.714-3.673,6.366L398.2,148.049l.878,1.91s12.3-4.863,20.686-10.191l-.374,7.929s-7.658,6.331-9.649,9.563l1.531,2.457,14.054-11.234s4.169-7.618,2.167-11.773Z" transform="translate(-360.492 -117.755)" fill="#2f2e41"/>
    <path id="Path_8" data-name="Path 8" d="M440.987,247.186a92.355,92.355,0,1,1-67.275-111.977A92.362,92.362,0,0,1,440.987,247.186Z" transform="translate(-259 -119.72)" fill="#9a56dd"/>
    <path id="Path_9" data-name="Path 9" d="M513.14,298.314c1.839-12.293-7.52-18.9-20.318-23.3l4.153-16.652-10.137-2.527-4.045,16.2c-2.666-.664-5.4-1.289-8.127-1.913L478.73,253.8l-10.115-2.522-4.156,16.647c-2.205-.5-4.372-1-6.472-1.523v-.051l-13.97-3.5-2.709,10.836s7.52,1.723,7.363,1.831c4.1,1.024,4.846,3.741,4.725,5.895l-4.73,18.963a8.392,8.392,0,0,1,1.054.339c-.339-.084-.7-.176-1.084-.271l-6.629,26.575a3.69,3.69,0,0,1-4.646,2.408c.1.146-7.368-1.839-7.368-1.839L425,339.206l13.177,3.292c2.454.615,4.86,1.26,7.228,1.864l-4.194,16.828,10.126,2.528,4.156-16.663c2.766.75,5.451,1.444,8.078,2.1l-4.139,16.587,10.137,2.527,4.194-16.8c17.286,3.27,30.284,1.951,35.759-13.683,4.408-12.589-.219-19.849-9.314-24.584C506.812,311.669,511.81,307.313,513.14,298.314Zm-23.159,32.476c-3.132,12.589-24.327,5.784-31.2,4.064l5.567-22.314C471.221,314.267,493.267,317.661,489.981,330.789Zm3.134-32.66c-2.858,11.451-20.5,5.632-26.22,4.207l5.047-20.25C477.666,283.525,496.092,286.188,493.115,298.13Z" transform="translate(-380.032 -206.363)" fill="#fff"/>
    <path id="Path_10" data-name="Path 10" d="M528.49,132.71l.444,8.344,1.555,6.006s1.225,3.443,2.091,3.579.87-2.671.271-3.505-.312-6.4-.312-6.4l.965-7.084Z" transform="translate(-455.487 -119.913)" fill="#fda57d"/>
    <path id="Path_11" data-name="Path 11" d="M526.58,125.475l.225,1.354,6.269.542s1.311-4.521-.888-6.5Z" transform="translate(-454.094 -111.281)" fill="#37b3ea"/>
    <path id="Path_12" data-name="Path 12" d="M494.483,102.3l-2.316-4.944s-4.375-7.772-17.3,7.474l8.523,6.805,5.516-4.009Z" transform="translate(-416.392 -92.695)" fill="#37b3ea"/>
    <path id="Path_13" data-name="Path 13" d="M0,0H3.505V5.562A1.463,1.463,0,0,1,2.043,7.024H1.466A1.463,1.463,0,0,1,0,5.562V0Z" transform="translate(79.917 2.803) rotate(53.99)" fill="#fda57d"/>
    <path id="Path_14" data-name="Path 14" d="M544.821,100.177a3.665,3.665,0,0,0,.986,3.617l2.127-1.547-2.062-2.836Z" transform="translate(-467.296 -95.634)" opacity="0.05"/>
    <ellipse id="Ellipse_1" data-name="Ellipse 1" cx="3.719" cy="3.711" rx="3.719" ry="3.711" transform="translate(76.085 4.564) rotate(-36.01)" fill="#fda57d"/>
    <path id="Path_15" data-name="Path 15" d="M546.9,90.845l-2.148,1.436.271-.7s1.766-4.605,5.884-2.62a6.005,6.005,0,0,1,3.134,5.369,4.993,4.993,0,0,1-1.084.889,2.587,2.587,0,0,1-3.47-.439c-.721-.859-1.978-2.636-1.747-3.654h0c-.211-.385-.488-.542-.842-.271Z" transform="translate(-467.342 -87.654)" opacity="0.05"/>
    <path id="Path_16" data-name="Path 16" d="M547.518,90.4l-2.148,1.436.271-.7s1.766-4.605,5.884-2.62a6.005,6.005,0,0,1,3.134,5.369,5,5,0,0,1-1.084.889,2.587,2.587,0,0,1-3.47-.439c-.721-.859-1.978-2.636-1.747-3.654h0c-.211-.385-.488-.542-.843-.271Z" transform="translate(-467.794 -87.326)" fill="#5a2f32"/>
    <ellipse id="Ellipse_2" data-name="Ellipse 2" cx="0.828" cy="0.413" rx="0.828" ry="0.413" transform="translate(79.295 3.128) rotate(-36.069)" fill="#fda57d"/>
    <path id="Path_17" data-name="Path 17" d="M265.03,52.443l.983-.842.011,1.33-.214-.512Z" transform="translate(-193.235 -37.619)" opacity="0.05"/>
    <path id="Path_18" data-name="Path 18" d="M270.01,57.67l.022.206,4.521.352.027-.192Z" transform="translate(-196.866 -42.045)" opacity="0.05"/>
    <path id="Path_19" data-name="Path 19" d="M503.07,121.08l.444,8.344,1.555,5.992s1.224,3.443,2.091,3.579.87-2.671.271-3.505-.317-6.388-.317-6.388l.981-7.084Z" transform="translate(-436.953 -111.434)" fill="#fda57d"/>
    <rect id="Rectangle_9" data-name="Rectangle 9" width="0.471" height="0.471" transform="translate(102.529 73.354)" fill="#ccc"/>
    <path id="Path_20" data-name="Path 20" d="M375.637,273.39H376.8a.637.637,0,0,1,.637.637v3.925H375v-3.925A.637.637,0,0,1,375.637,273.39Z" transform="translate(-273.414 -199.326)" fill="#2f2e41"/>
    <rect id="Rectangle_10" data-name="Rectangle 10" width="1.417" height="0.314" transform="translate(102.057 73.749)" fill="#f7931a"/>
    <rect id="Rectangle_11" data-name="Rectangle 11" width="2.438" height="0.943" transform="translate(101.586 75.87)" fill="#f7931a"/>
    <path id="Path_21" data-name="Path 21" d="M638.807,356.54v.236a.143.143,0,0,1-.157-.119C638.65,356.592,638.72,356.54,638.807,356.54Z" transform="translate(-535.804 -283.108)" fill="#e6e6e6"/>
    <path id="Path_22" data-name="Path 22" d="M503.014,106.1s-1.035,2.793-.6,3.747" transform="translate(-436.399 -100.512)" opacity="0.05"/>
    <path id="Path_23" data-name="Path 23" d="M244.143,35.07l0,.517,4.966.834.06-.414Z" transform="translate(-178.004 -25.567)" opacity="0.05"/>
    <path id="Path_24" data-name="Path 24" d="M245.213,18.777l-1.143,4.4,5.022.937,1.327-5.553Z" transform="translate(-177.953 -13.53)" fill="#37b3ea"/>
    <g id="Group_3" data-name="Group 3" transform="translate(67.09 20.485)" opacity="0.5">
      <path id="Path_25" data-name="Path 25" d="M506.66,161.09l.989,3.744s1.276,3.522,2.167,3.654.9-2.728.271-3.579c-.333-.447-.4-2.229-.4-3.82Z" transform="translate(-506.66 -161.09)" fill="url(#linear-gradient-3)"/>
    </g>
    <path id="Path_26" data-name="Path 26" d="M506.95,161.09l.951,3.665s1.224,3.443,2.091,3.579.87-2.671.271-3.505c-.32-.439-.387-2.184-.382-3.738Z" transform="translate(-439.782 -140.605)" fill="#fda57d"/>
    <g id="Group_4" data-name="Group 4" transform="translate(73.269 20.33)" opacity="0.5">
      <path id="Path_27" data-name="Path 27" d="M533.425,160.52H529.47l.054.992,1.647,6.182s1.3,3.543,2.213,3.684.918-2.75.271-3.606-.322-6.58-.322-6.58Z" transform="translate(-529.47 -160.52)" fill="url(#linear-gradient-4)"/>
    </g>
    <path id="Path_28" data-name="Path 28" d="M533.678,160.52H529.94l.052.964,1.555,6.006s1.224,3.443,2.091,3.579.87-2.671.271-3.505-.312-6.4-.312-6.4Z" transform="translate(-456.544 -140.19)" fill="#fda57d"/>
    <path id="Path_29" data-name="Path 29" d="M380,267.355,386.773,266l.271,3.251L380,267.625Z" transform="translate(-277.059 -193.938)" fill="#535461" opacity="0.2"/>
    <g id="Group_5" data-name="Group 5" transform="translate(35.248 52.646)" opacity="0.5">
      <path id="Path_30" data-name="Path 30" d="M446.594,301.582l.187.081h0l5.96,2.565,7.593-9.008a1.382,1.382,0,0,0-.219-2.167c-1.371-.88-2.232,1.4-2.232,1.4l-5.835,6.269-4.957-2.479.078-.52-4.519-2.612a5.573,5.573,0,0,0-.287-.479l-.041-.146-.225-.2c-.043-.046-.087-.089-.13-.127l.748-.813a4.023,4.023,0,0,0,5.3-3.17,2.83,2.83,0,0,0,1.059,0,2.92,2.92,0,0,0,2.086-1.715.214.214,0,0,1-.154.111,2.745,2.745,0,0,0,.154-.314c-.154.374-1.6-.141-1.815-.271a3.336,3.336,0,0,1-1.355-1.512,3.791,3.791,0,0,0-3.324-1.839,6.912,6.912,0,0,0-3.167.4,3.9,3.9,0,0,0-2.23,2.2,2.9,2.9,0,0,0-.162,1.07,2.617,2.617,0,0,0,.851,2.089,1.836,1.836,0,0,0,.154.119c.03.116.062.23.1.344l-.2.214h0l-1.284,1.392-.065-.019-13.526,2.024v.027c-.45-.3-2.487-1.333-7.572.073-1.921.542-5.12.474-8.555.157-2.4-2.985-3.95-12.283-3.95-12.283l-.607-2.63-7.875,1.82s3.633.813,4.24,1.82c.924.309,1.5,7.209,1.715,10.465-4.716-.729-8.579-1.563-8.579-1.563l-2.826-1.01-2.018,7.081s2.221-2.438,4.24-2.63c0,0,10.094,4.855,17.565,3.844,2.909-.393,5.721.837,8.076,1.214a46.022,46.022,0,0,0,6.231.607l.024,2.224s8.314-.358,13.775-2.091a9.053,9.053,0,0,0,.864,1.991l.991-.485,5.57,6.857,10.9-4.454s1.625-.607.813-2.024-2.625.2-2.625.2l-8.076,2.831-3.408-4.724h0l-.133-.184.715-.349s-.022-.106-.065-.287l1.88,1.5Z" transform="translate(-389.12 -279.81)" fill="url(#linear-gradient-5)"/>
    </g>
    <path id="Path_31" data-name="Path 31" d="M311.245,235.051l-2.5-2.313,4.131-4.478,2.5,2.311Z" transform="translate(-225.111 -166.422)" fill="#fda57d"/>
    <path id="Path_32" data-name="Path 32" d="M577.363,314.46l-1.823,1.978a3.937,3.937,0,0,0,2.414,2.4l1.9-2.067Z" transform="translate(-489.791 -252.427)" opacity="0.05"/>
    <path id="Path_33" data-name="Path 33" d="M584.25,334.914l10,4.3,7.393-8.761a1.344,1.344,0,0,0-.214-2.108c-1.333-.856-2.167,1.354-2.167,1.354l-5.689,6.09-7.3-3.646Z" transform="translate(-496.141 -262.41)" fill="#fda57d"/>
    <path id="Path_34" data-name="Path 34" d="M322.253,249.24l5.106,2.95-.688,4.624-4.811-3.836Z" transform="translate(-234.67 -181.719)" fill="#37b3ea"/>
    <ellipse id="Ellipse_3" data-name="Ellipse 3" cx="3.928" cy="3.936" rx="3.928" ry="3.936" transform="translate(85.717 58.568)" fill="#fda57d"/>
    <path id="Path_35" data-name="Path 35" d="M537.28,327.321l-1.964-.591L522.15,328.7l.1,8.94s16-.688,17.771-4.819l-1.178-4.12Z" transform="translate(-450.864 -261.373)" fill="#37b3ea"/>
    <path id="Path_36" data-name="Path 36" d="M322.43,257.334l4.657,3.717.2-1.574-4.616-4.427Z" transform="translate(-235.085 -185.955)" opacity="0.05"/>
    <path id="Path_37" data-name="Path 37" d="M439.021,328.517s-1.766-1.574-7.461,0-22.975-2.167-22.975-2.167L408,329.7s9.817,4.722,17.083,3.738c2.828-.382,5.564.813,7.856,1.181a44.221,44.221,0,0,0,6.082.577Z" transform="translate(-367.637 -261.096)" fill="#2f2e41"/>
    <path id="Path_38" data-name="Path 38" d="M397.466,323.713l-2.752-.983-1.964,6.886s2.167-2.362,4.123-2.557Z" transform="translate(-356.519 -258.457)" fill="#535461"/>
    <path id="Path_39" data-name="Path 39" d="M434.8,291.763l4.118-.983s1.964,11.806,4.909,12.789h-7.257S435.978,292.156,434.8,291.763Z" transform="translate(-387.177 -235.162)" fill="#2f2e41"/>
    <path id="Path_40" data-name="Path 40" d="M427.806,283.9l-.588-2.557-7.658,1.772s3.522.788,4.123,1.772Z" transform="translate(-376.066 -228.279)" fill="#535461"/>
    <path id="Path_41" data-name="Path 41" d="M577.675,299.295a6.724,6.724,0,0,0-3.08.387,3.793,3.793,0,0,0-2.167,2.137,2.666,2.666,0,0,0,.672,2.874,1.172,1.172,0,0,0,.691.314,1.722,1.722,0,0,0,1.084-.555,9.164,9.164,0,0,1,1.972-1.243,2.088,2.088,0,0,1,1.9-.144,3.936,3.936,0,0,1,.685.65,2.788,2.788,0,0,0,4.54-.91c-.152.366-1.555-.138-1.766-.249a3.141,3.141,0,0,1-1.306-1.468A3.652,3.652,0,0,0,577.675,299.295Z" transform="translate(-487.404 -241.342)" opacity="0.05"/>
    <path id="Path_42" data-name="Path 42" d="M577.675,298.575a6.725,6.725,0,0,0-3.08.387,3.792,3.792,0,0,0-2.167,2.137,2.665,2.665,0,0,0,.672,2.874,1.172,1.172,0,0,0,.691.314,1.722,1.722,0,0,0,1.084-.555,9.169,9.169,0,0,1,1.972-1.243,2.088,2.088,0,0,1,1.9-.144,3.934,3.934,0,0,1,.685.65,2.788,2.788,0,0,0,4.54-.91c-.152.366-1.555-.138-1.766-.249a3.141,3.141,0,0,1-1.306-1.468A3.646,3.646,0,0,0,577.675,298.575Z" transform="translate(-487.404 -240.817)" fill="#2f2e41"/>
    <ellipse id="Ellipse_4" data-name="Ellipse 4" cx="0.591" cy="0.295" rx="0.591" ry="0.295" transform="translate(87.945 62.617) rotate(-76.65)" fill="#fda57d"/>
    <path id="Path_43" data-name="Path 43" d="M319.62,275.549l.133.162,2.953-1.433-.13-.179Z" transform="translate(-233.036 -199.844)" opacity="0.05"/>
    <path id="Path_44" data-name="Path 44" d="M340.582,262l-.482,3.232.179.1.379-3.3Z" transform="translate(-247.968 -191.022)" opacity="0.05"/>
    <rect id="Rectangle_12" data-name="Rectangle 12" width="2.357" height="15.937" transform="translate(74.721 62.699)" fill="#e0e0e0"/>
    <rect id="Rectangle_13" data-name="Rectangle 13" width="2.357" height="15.937" transform="matrix(0.948, 0.318, -0.318, 0.948, 70.391, 18.082)" fill="#e0e0e0"/>
    <path id="Path_45" data-name="Path 45" d="M279.516,134.4h-.786V95.92l.775.041Z" transform="translate(-203.224 -69.933)" fill="#e0e0e0"/>
    <path id="Path_46" data-name="Path 46" d="M573.25,354.252l6.873,8.46,10.6-4.334s1.571-.591.786-1.967-2.552.2-2.552.2l-7.856,2.755-4.778-6.624Z" transform="translate(-488.121 -280.337)" fill="#fda57d"/>
    <path id="Path_47" data-name="Path 47" d="M562.74,330.7s2.945,9.051,3.338,9.246l4.605-2.262s-1.308-6.1-2.766-7.043S562.938,329.917,562.74,330.7Z" transform="translate(-480.458 -263.774)" fill="#37b3ea"/>
    <path id="Path_48" data-name="Path 48" d="M565.816,341.91s-.154,3.462.829,4.064" transform="translate(-482.695 -272.441)" opacity="0.05"/>
    <path id="Path_49" data-name="Path 49" d="M269.213,78.995l-3.543-5.237.371-1.108,3.942,6.344Z" transform="translate(-193.701 -52.967)" fill="#e0e0e0"/>
    <rect id="Rectangle_14" data-name="Rectangle 14" width="0.615" height="1.552" transform="translate(93.008 63.597) rotate(33.6)" fill="#2f2e41"/>
    <rect id="Rectangle_15" data-name="Rectangle 15" width="4.559" height="0.309" transform="translate(89.007 61.352) rotate(33.62)" fill="#2f2e41"/>
  </g>
</svg>
